<svg width="30" height="34" viewBox="0 0 30 34" fill="none" xmlns="http://www.w3.org/2000/svg">
<path d="M21.875 0.166656C19.9533 0.278323 17.7472 1.3489 16.4355 2.71223C15.2505 3.95223 14.3156 5.79384 14.6973 7.57551C16.7856 7.63051 18.8817 6.5322 20.1367 5.14387C21.3084 3.84554 22.1967 2.03332 21.875 0.166656ZM21.9889 7.57226C18.9739 7.57226 17.7133 9.42447 15.625 9.42447C13.4767 9.42447 11.5128 7.68944 8.91276 7.68944C5.37609 7.69111 0 10.9672 0 18.6855C0 25.7072 6.36276 33.5 9.95443 33.5C12.1361 33.5217 12.665 32.1283 15.625 32.1133C18.5883 32.0916 19.2278 33.5183 21.4128 33.5C23.8728 33.4817 25.7939 30.7784 27.1973 28.6367C28.2039 27.1034 28.6178 26.3206 29.3978 24.5872C23.6095 23.1206 22.4578 13.7861 29.3978 11.8561C28.0878 9.62111 24.2639 7.57226 21.9889 7.57226Z" fill="black"/>
</svg>
