<svg width="40" height="41" viewBox="0 0 40 41" fill="none" xmlns="http://www.w3.org/2000/svg">
<path d="M36.3425 17.2358H35V17.1667H20V23.8333H29.4191C28.045 27.7142 24.3525 30.5 20 30.5C14.4775 30.5 9.99998 26.0225 9.99998 20.5C9.99998 14.9775 14.4775 10.5 20 10.5C22.5491 10.5 24.8683 11.4617 26.6341 13.0325L31.3483 8.31834C28.3716 5.54418 24.39 3.83334 20 3.83334C10.7958 3.83334 3.33331 11.2958 3.33331 20.5C3.33331 29.7042 10.7958 37.1667 20 37.1667C29.2041 37.1667 36.6666 29.7042 36.6666 20.5C36.6666 19.3825 36.5516 18.2917 36.3425 17.2358Z" fill="#FFC107"/>
<path d="M5.255 12.7425L10.7308 16.7583C12.2125 13.09 15.8008 10.5 20 10.5C22.5492 10.5 24.8683 11.4617 26.6342 13.0325L31.3483 8.31834C28.3717 5.54418 24.39 3.83334 20 3.83334C13.5983 3.83334 8.04667 7.44751 5.255 12.7425Z" fill="#FF3D00"/>
<path d="M20 37.1667C24.305 37.1667 28.2166 35.5192 31.1741 32.84L26.0158 28.475C24.3425 29.7425 22.2625 30.5 20 30.5C15.665 30.5 11.9841 27.7358 10.5975 23.8783L5.16248 28.0658C7.92081 33.4633 13.5225 37.1667 20 37.1667Z" fill="#4CAF50"/>
<path d="M36.3425 17.2358H35V17.1667H20V23.8333H29.4192C28.7592 25.6975 27.56 27.305 26.0133 28.4758L26.0158 28.4742L31.1742 32.8392C30.8092 33.1708 36.6667 28.8333 36.6667 20.5C36.6667 19.3825 36.5517 18.2917 36.3425 17.2358Z" fill="#1976D2"/>
</svg>
